<?xml version="1.0" standalone="no"?><!DOCTYPE svg PUBLIC "-//W3C//DTD SVG 1.1//EN" "http://www.w3.org/Graphics/SVG/1.1/DTD/svg11.dtd"><svg t="1754644774504" class="icon" viewBox="0 0 1024 1024" version="1.1" xmlns="http://www.w3.org/2000/svg" p-id="14527" xmlns:xlink="http://www.w3.org/1999/xlink" width="16" height="16"><path d="M395.215692 335.951425c-32.720216 0-59.368132 26.618241-59.368132 59.370179 0 32.712029 26.63666 59.35176 59.368132 59.35176l59.360969 0 0-59.35176C454.577684 362.569666 427.948187 335.951425 395.215692 335.951425zM335.848583 636.870985c0 32.730449 26.63666 59.370179 59.368132 59.370179 32.732495 0 59.360969-26.638707 59.360969-59.370179l0-59.370179-59.360969 0C362.485243 577.50183 335.848583 604.13849 335.848583 636.870985zM636.777353 577.50183l-59.361993 0 0 59.370179c0 32.730449 26.627451 59.370179 59.361993 59.370179 32.729425 0 59.359946-26.638707 59.359946-59.370179C696.137299 604.13849 669.507802 577.50183 636.777353 577.50183zM510.403131 63.319118C263.445576 63.319118 63.233672 263.540232 63.233672 510.510066c0 246.945275 200.211904 447.148993 447.169459 447.148993 246.968811 0 447.170482-200.203718 447.170482-447.148993C957.574636 263.540232 757.371942 63.319118 510.403131 63.319118zM503.605308 636.870985c0 59.866483-48.52211 108.397802-108.388593 108.397802-59.865459 0-108.396779-48.53132-108.396779-108.397802 0-59.846016 48.53132-108.398826 108.396779-108.398826l108.388593 0L503.605308 636.870985zM503.605308 503.700987l-108.388593 0c-59.865459 0-108.396779-48.5129-108.396779-108.379383 0-59.864436 48.53132-108.417245 108.396779-108.417245 59.866483 0 108.388593 48.552809 108.388593 108.417245L503.605308 503.700987zM636.777353 745.268788c-59.857273 0-108.399849-48.53132-108.399849-108.397802l0-108.398826 108.399849 0c59.864436 0 108.395756 48.551786 108.395756 108.398826C745.173109 696.737468 696.641789 745.268788 636.777353 745.268788zM636.777353 503.700987 528.378527 503.700987 528.378527 395.321604c0-59.864436 48.532343-108.417245 108.399849-108.417245 59.864436 0 108.395756 48.552809 108.395756 108.417245C745.173109 455.188086 696.641789 503.700987 636.777353 503.700987zM636.777353 335.951425c-32.733519 0-59.361993 26.618241-59.361993 59.370179l0 59.35176 59.361993 0c32.729425 0 59.359946-26.63973 59.359946-59.35176C696.137299 362.569666 669.496545 335.951425 636.777353 335.951425z" fill="#262635" p-id="14528"></path></svg>