<?xml version="1.0" standalone="no"?><!DOCTYPE svg PUBLIC "-//W3C//DTD SVG 1.1//EN" "http://www.w3.org/Graphics/SVG/1.1/DTD/svg11.dtd"><svg t="1755827832160" class="icon" viewBox="0 0 1024 1024" version="1.1" xmlns="http://www.w3.org/2000/svg" p-id="13723" xmlns:xlink="http://www.w3.org/1999/xlink" width="16" height="16"><path d="M512 512m-512 0a512 512 0 1 0 1024 0 512 512 0 1 0-1024 0Z" fill="#FBD000" p-id="13724"></path><path d="M712 968c0 26.4-21.6 48-48 48H288c-26.4 0-48-21.6-48-48V184c0-26.4 21.6-48 48-48h376c26.4 0 48 21.6 48 48v784z" fill="#EAEAEA" p-id="13725"></path><path d="M264 968V184c0-26.4 24.8-48 51.2-48h-24c-26.4 0-48 21.6-48 48v784c0 26.4 21.6 48 48 48h24c-26.4 0-51.2-21.6-51.2-48z" fill="#D4D6D6" p-id="13726"></path><path d="M664 1024H288c-31.2 0-56-24.8-56-56V184c0-31.2 24.8-56 56-56h376c31.2 0 56 24.8 56 56v784c0 31.2-24.8 56-56 56zM288 144c-22.4 0-40 17.6-40 40v784c0 22.4 17.6 40 40 40h376c22.4 0 40-17.6 40-40V184c0-22.4-17.6-40-40-40H288z" fill="#7C4119" p-id="13727"></path><path d="M768 968c0 26.4-21.6 48-48 48H344c-26.4 0-48-21.6-48-48V184c0-26.4 21.6-48 48-48h376c26.4 0 48 21.6 48 48v784z" fill="#FFFFFF" p-id="13728"></path><path d="M712 856c0 17.6-14.4 32-32 32H384c-17.6 0-32-14.4-32-32V264c0-17.6 14.4-32 32-32h296c17.6 0 32 14.4 32 32v592z" fill="#3AD0F9" p-id="13729"></path><path d="M536 944m-32 0a32 32 0 1 0 64 0 32 32 0 1 0-64 0Z" fill="#EAEAEA" p-id="13730"></path><path d="M264 344c0 8.8-7.2 16-16 16s-16-7.2-16-16V264c0-8.8 7.2-16 16-16s16 7.2 16 16v80z" fill="#EAEAEA" p-id="13731"></path><path d="M577.6 536.8c0-21.6 17.6-31.2 18.4-32-9.6-14.4-24.8-16.8-30.4-16.8-12.8-1.6-25.6 8-32 8-6.4 0-16.8-7.2-27.2-7.2-14.4 0-27.2 8-34.4 20.8-14.4 25.6-4 64 10.4 84.8 7.2 10.4 15.2 21.6 26.4 21.6 10.4-0.8 14.4-7.2 27.2-7.2 12.8 0 16 7.2 27.2 6.4 11.2 0 18.4-10.4 25.6-20.8 8-12 11.2-23.2 11.2-24 0 0-22.4-8-22.4-33.6z" fill="#00B3F9" p-id="13732"></path><path d="M264 496c0 8.8-7.2 16-16 16s-16-7.2-16-16V416c0-8.8 7.2-16 16-16s16 7.2 16 16v80z" fill="#EAEAEA" p-id="13733"></path><path d="M576 192H488c-4.8 0-8-3.2-8-8s3.2-8 8-8h88c4.8 0 8 3.2 8 8s-3.2 8-8 8zM248 368c-13.6 0-24-10.4-24-24V264c0-13.6 10.4-24 24-24s24 10.4 24 24v80c0 13.6-10.4 24-24 24z m0-112c-4.8 0-8 3.2-8 8v80c0 4.8 3.2 8 8 8s8-3.2 8-8V264c0-4.8-3.2-8-8-8zM248 520c-13.6 0-24-10.4-24-24V416c0-13.6 10.4-24 24-24s24 10.4 24 24v80c0 13.6-10.4 24-24 24z m0-112c-4.8 0-8 3.2-8 8v80c0 4.8 3.2 8 8 8s8-3.2 8-8V416c0-4.8-3.2-8-8-8z" fill="#7C4119" p-id="13734"></path><path d="M560 476c5.6-7.2 9.6-17.6 8-28-8 0-17.6 5.6-23.2 12.8-4.8 6.4-9.6 16.8-8 27.2 8 0.8 17.6-4.8 23.2-12z" fill="#00B3F9" p-id="13735"></path><path d="M602.4 780.8c-2.4 0-4-0.8-5.6-2.4-3.2-3.2-3.2-8 0-11.2l30.4-30.4c3.2-3.2 8-3.2 11.2 0 3.2 3.2 3.2 8 0 11.2L608 778.4c-1.6 1.6-3.2 2.4-5.6 2.4zM421.6 376c-2.4 0-4-0.8-5.6-2.4-3.2-3.2-3.2-8 0-11.2L498.4 280c3.2-3.2 8-3.2 11.2 0 3.2 3.2 3.2 8 0 11.2L428 373.6c-1.6 1.6-4 2.4-6.4 2.4zM413.6 488c-2.4 0-4-0.8-5.6-2.4-3.2-3.2-3.2-8 0-11.2l178.4-176c3.2-3.2 8-3.2 11.2 0 3.2 3.2 3.2 8 0 11.2l-178.4 176c-1.6 1.6-3.2 2.4-5.6 2.4zM600.8 432c-2.4 0-4-0.8-6.4-2.4-3.2-3.2-3.2-8.8 0-12l79.2-79.2c3.2-3.2 8.8-3.2 12 0 3.2 3.2 3.2 8.8 0 12l-79.2 79.2c-1.6 1.6-4 2.4-5.6 2.4zM416.8 738.4c-2.4 0-4-0.8-5.6-2.4-3.2-3.2-3.2-8 0-11.2l74.4-74.4c3.2-3.2 8-3.2 11.2 0 3.2 3.2 3.2 8 0 11.2L423.2 736c-1.6 1.6-4 2.4-6.4 2.4z" fill="#FFFFFF" p-id="13736"></path><path d="M720 1024H344c-31.2 0-56-24.8-56-56V184c0-31.2 24.8-56 56-56h376c31.2 0 56 24.8 56 56v784c0 31.2-24.8 56-56 56zM344 144c-22.4 0-40 17.6-40 40v784c0 22.4 17.6 40 40 40h376c22.4 0 40-17.6 40-40V184c0-22.4-17.6-40-40-40H344z" fill="#7C4119" p-id="13737"></path><path d="M500.8 783.2c-2.4 0-4-0.8-5.6-2.4-3.2-3.2-3.2-8 0-11.2l156.8-156.8c3.2-3.2 8-3.2 11.2 0 3.2 3.2 3.2 8 0 11.2L506.4 780.8c-1.6 1.6-3.2 2.4-5.6 2.4z" fill="#FFFFFF" p-id="13738"></path><path d="M680 808H384c-17.6 0-32-14.4-32-32v80c0 17.6 14.4 32 32 32h296c17.6 0 32-14.4 32-32V776c0 17.6-14.4 32-32 32z" fill="#00B3F9" p-id="13739"></path><path d="M536 929.6c15.2 0 27.2 11.2 31.2 27.2 0.8-2.4 0.8-5.6 0.8-8.8 0-20-14.4-36-32-36s-32 16-32 36c0 3.2 0.8 5.6 0.8 8.8 4-16 16-27.2 31.2-27.2z" fill="#D4D6D6" p-id="13740"></path><path d="M952.8 524.8c0-3.2-3.2-6.4-8-7.2l-15.2-2.4c-4-0.8-8.8-4.8-8.8-8.8l-2.4-15.2c-0.8-4-4-8-7.2-8s-6.4 3.2-7.2 8l-2.4 15.2c-0.8 4-4.8 8.8-8.8 8.8l-15.2 2.4c-4 0.8-8 4-8 7.2s3.2 6.4 8 7.2l15.2 2.4c4 0.8 8.8 4.8 8.8 8.8l2.4 15.2c0.8 4 4 8 7.2 8s6.4-3.2 7.2-8l2.4-16.8c0.8-4 4.8-8 8.8-8.8l14.4-0.8c5.6-0.8 8.8-4 8.8-7.2zM183.2 674.4c0-3.2-3.2-6.4-8-7.2l-15.2-2.4c-4-0.8-8-4.8-8.8-8.8l-2.4-15.2c-0.8-4-4-8-7.2-8s-6.4 3.2-7.2 8l-1.6 15.2c-0.8 4-4.8 8.8-8.8 8.8l-15.2 2.4c-4 0.8-8 4-8 7.2s3.2 6.4 8 7.2l15.2 2.4c4 0.8 8.8 4.8 8.8 8.8l2.4 15.2c0.8 4 4 8 7.2 8s6.4-3.2 7.2-8l2.4-16.8c0.8-4 4.8-8 8.8-8.8l14.4-0.8c4.8-1.6 8-4.8 8-7.2zM128 496c-17.6 0-32-14.4-32-32s14.4-32 32-32 32 14.4 32 32-14.4 32-32 32z m0-48.8c-9.6 0-16.8 8-16.8 16.8 0 9.6 8 16.8 16.8 16.8 9.6 0 16.8-8 16.8-16.8 0-9.6-7.2-16.8-16.8-16.8zM872 736c-17.6 0-32-14.4-32-32s14.4-32 32-32 32 14.4 32 32-14.4 32-32 32z m0-48.8c-9.6 0-16.8 8-16.8 16.8 0 9.6 8 16.8 16.8 16.8 9.6 0 16.8-8 16.8-16.8 0-9.6-7.2-16.8-16.8-16.8zM856 376c-17.6 0-32-14.4-32-32s14.4-32 32-32 32 14.4 32 32-14.4 32-32 32z m0-48.8c-9.6 0-16.8 8-16.8 16.8 0 9.6 8 16.8 16.8 16.8 9.6 0 16.8-8 16.8-16.8 0-9.6-7.2-16.8-16.8-16.8z" fill="#FFFFFF" p-id="13741"></path></svg>