<?xml version="1.0" standalone="no"?><!DOCTYPE svg PUBLIC "-//W3C//DTD SVG 1.1//EN" "http://www.w3.org/Graphics/SVG/1.1/DTD/svg11.dtd"><svg t="1754644902562" class="icon" viewBox="0 0 1024 1024" version="1.1" xmlns="http://www.w3.org/2000/svg" p-id="17241" xmlns:xlink="http://www.w3.org/1999/xlink" width="16" height="16"><path d="M875.74528 210.98496c0-59.81696-47.93344-108.47744-106.8544-108.47744H253.73696c-58.91584 0-106.84928 48.66048-106.84928 108.47744v613.83168c0 59.81184 47.93344 108.47232 106.84928 108.47232H636.68736c1.6896 0 3.33824-0.17408 4.95616-0.44032 0.22528-0.03584 0.45056-0.06144 0.67584-0.1024 1.59232-0.29696 3.13856-0.72704 4.6336-1.25952l0.75264-0.27648a30.88896 30.88896 0 0 0 9.05216-5.44256c0.08192-0.07168 0.1792-0.11776 0.26112-0.18944l208.36352-184.32a30.63808 30.63808 0 0 0 10.27072-25.01632c0.04096-0.64 0.09728-1.27488 0.09728-1.91488V210.98496zM208.32256 824.81664V210.98496c0-25.9328 20.37248-47.03744 45.40928-47.03744h515.15392c25.04192 0 45.4144 21.09952 45.4144 47.03744v472.30976l-176.5376-1.76128c-8.28928-0.01024-16.0512 3.0976-21.87264 8.84736a30.72512 30.72512 0 0 0-9.14944 21.74464l-0.67072 159.7184H253.73696c-25.04192 0-45.4144-21.09952-45.4144-47.0272z m560.89088-80.52736l-101.54496 89.8304 0.384-90.83904 101.16096 1.00864z" fill="#333333" p-id="17242"></path><path d="M300.74368 307.75296h406.85568a30.72 30.72 0 0 0 0-61.44H300.74368a30.72 30.72 0 0 0 0 61.44zM300.74368 470.7072h406.85568a30.72 30.72 0 0 0 0-61.44H300.74368a30.72 30.72 0 0 0 0 61.44zM738.31936 596.92544a30.72 30.72 0 0 0-30.72-30.72H300.74368a30.72 30.72 0 0 0 0 61.44h406.85568a30.72 30.72 0 0 0 30.72-30.72z" fill="#333333" p-id="17243"></path></svg>