<?xml version="1.0" standalone="no"?><!DOCTYPE svg PUBLIC "-//W3C//DTD SVG 1.1//EN" "http://www.w3.org/Graphics/SVG/1.1/DTD/svg11.dtd"><svg t="1755827678118" class="icon" viewBox="0 0 1025 1024" version="1.1" xmlns="http://www.w3.org/2000/svg" p-id="9126" xmlns:xlink="http://www.w3.org/1999/xlink" width="16.015625" height="16"><path d="M513.237975 0.001493A511.973548 511.973548 0 1 1 150.590045 149.327111a511.973548 511.973548 0 0 1 362.64793-149.325618z m109.221023 331.076228c-42.664462-4.479769-83.622346 26.665289-105.594544 26.665289s-55.250479-25.812-90.661982-25.172033A134.819701 134.819701 0 0 0 312.288357 405.313885c-48.637487 87.462148-12.372694 218.442047 34.771537 289.478377 23.03881 34.771537 50.77071 74.662809 87.035503 73.169553s47.99752-23.678777 90.235338-23.678776S577.234668 767.961815 614.992717 767.961815s61.223503-35.624826 84.262313-70.823007a323.183302 323.183302 0 0 0 37.971372-82.769057 123.726941 123.726941 0 0 1-53.330578-47.144231 126.500131 126.500131 0 0 1-21.332231-69.329751 132.686478 132.686478 0 0 1 59.516925-109.647668 127.993387 127.993387 0 0 0-99.62152-57.17038z m0-139.086147a121.593718 121.593718 0 0 0-81.062478 43.731074A123.940263 123.940263 0 0 0 513.237975 325.104696a104.954577 104.954577 0 0 0 81.489123-40.531239A132.8998 132.8998 0 0 0 622.672321 191.991574z" fill="#13227a" p-id="9127"></path><path d="M513.237975 0.001493A511.973548 511.973548 0 1 1 150.590045 149.327111a511.973548 511.973548 0 0 1 362.64793-149.325618z m109.221023 331.076228c-42.664462-4.479769-83.622346 26.665289-105.594544 26.665289s-55.250479-25.812-90.661982-25.172033A134.819701 134.819701 0 0 0 312.288357 405.313885c-48.637487 87.462148-12.372694 218.442047 34.771537 289.478377 23.03881 34.771537 50.77071 74.662809 87.035503 73.169553s47.99752-23.678777 90.235338-23.678776S577.234668 767.961815 614.992717 767.961815s61.223503-35.624826 84.262313-70.823007a323.183302 323.183302 0 0 0 37.971372-82.769057 123.726941 123.726941 0 0 1-53.330578-47.144231 126.500131 126.500131 0 0 1-21.332231-69.329751 132.686478 132.686478 0 0 1 59.516925-109.647668 127.993387 127.993387 0 0 0-99.62152-57.17038z m0-139.086147a121.593718 121.593718 0 0 0-81.062478 43.731074A123.940263 123.940263 0 0 0 513.237975 325.104696a104.954577 104.954577 0 0 0 81.489123-40.531239A132.8998 132.8998 0 0 0 622.672321 191.991574z" fill="#13227a" p-id="9128"></path></svg>