<?xml version="1.0" standalone="no"?><!DOCTYPE svg PUBLIC "-//W3C//DTD SVG 1.1//EN" "http://www.w3.org/Graphics/SVG/1.1/DTD/svg11.dtd"><svg t="1755828550519" class="icon" viewBox="0 0 1024 1024" version="1.1" xmlns="http://www.w3.org/2000/svg" p-id="16634" xmlns:xlink="http://www.w3.org/1999/xlink" width="16" height="16"><path d="M214.48 29.32c42.64-16 88.8-13.48 133.52-14.16 153.32-0.12 306.68-1.16 460.04 0.88 71.4 0.44 143.08 38.32 176.8 102.48 10.8 18.68 16.72 39.44 21.52 60.24 1.84 13.24-0.68 27.2 3.92 39.92 2.32 119 0.48 238.12 0.96 357.16-0.44 48.52 0.72 97.08-0.88 145.56-5.16 12.68-1.68 26.76-3.6 40-4.32 7.32-3.12 16-4.2 24.08-2.72 5.04-3.32 10.76-4.16 16.32-1.08 2.04-3.24 6.16-4.32 8.2-1.36 3.84-2.56 7.76-3.6 11.76-3.56 6.96-7.88 13.48-12.08 20.12-1.96 3.96-3.92 7.96-5.8 11.96-19.88 26.24-44.92 48.92-75.08 62.72-3.92 1.92-7.8 3.84-11.64 5.8-5.48 0.96-11 1.96-16.28 3.68-4.12 1.44-8.2 2.96-12.24 4.6-6.8 0.76-13.92 0.56-20.04 4.08-13.24 1.96-27.52-1.72-40 3.88-166.12 1.08-332.36 0.76-498.52 0.16-13.72-6.16-29.48-1.84-44.08-4.04-6.16-3.56-13.4-3.4-20.24-4.24-3.96-1.52-7.96-2.96-12-4.24-4.04-1.4-8.12-2.68-12.24-3.88-6.56-3.32-13.24-6.44-20.32-8.4-16.2-11.72-34.64-20.68-48.4-35.48-13.24-12.76-22.44-28.88-32.08-44.32-4.48-9.28-8.56-18.72-11.84-28.48-1.16-4.16-2.48-8.24-3.88-12.28-5.92-25.32-9.76-51.32-9.36-77.36 0.08-146.72-1.56-293.4-0.88-440.12 1.28-41.64-0.84-84.2 11.88-124.52 1.4-4.6 2.72-9.2 3.84-13.88l1.44 0.16c1.84-4.96 3.8-9.92 5.84-14.8 1.04-2.04 3.12-6.2 4.12-8.24C136 76.92 170.84 44.2 214.48 29.32m118.88 201.16c0.08 4.64 0.12 9.28 0.28 13.92-5.12 36.28-3.32 73.32-3.8 109.92 10.24 0.28 20.52 0.24 30.76 0 0.4-12.76 4.6-24.92 6.44-37.44l4.28 1.16c-0.44-1.56-1.36-4.72-1.84-6.32 2.52-3.56 5.12-7.08 7.68-10.6 1.96-3.92 3.84-7.84 5.68-11.76l4.04 1.68-1.44-4.32c4.36-1.84 8.72-3.68 13.04-5.6l-0.52-4.6 7.68 2.88-0.84-4.32c34.2-9.4 69.6-10.52 104.88-10.28-0.28 135.4-0.44 270.8 0.08 406.24l-5.4-1.16c0.64 1.68 1.92 5.08 2.56 6.8a313.408 313.408 0 0 1-13.84 13.44c-2.76-0.04-8.24-0.16-11-0.2l0.52 3.76c-12.68-0.88-25.04 2.16-37.52 3.76 0.44 9.84 0.44 19.68 0.28 29.52l4.76-2.08-0.04 4.76c65.6 0.32 131.24-0.08 196.84 0.24l-1.8-3.08c2.08-0.36 6.24-1 8.32-1.32 1.2-9.56 0.72-19.2 0.76-28.76l-6.56 0.96c-10.84-4.92-23-3.8-34.56-4.08l1.2-3c-5.64-1.28-11.12-3.04-16.64-4.64l0.28-4.08-4.36 0.48 0.96-5.2-4.4 1.08c-1.48-138.68-0.28-277.36-0.64-416.04 11.12 0.48 22.24 0.48 33.36-0.12l-1.56 3.68c15.28-0.12 30.6 1.16 45.92 0.52l-2.24 3.96c3.04 0.12 9.12 0.28 12.16 0.36 5.6 3 11.92 3.8 18.16 4.4l-2.24 4.2 3.8-1.6c3.24 2.48 6.64 4.8 10.16 6.88 5.32 3.28 9.56 8 12.56 13.48l1.8-0.24c1.16 6.84 4.8 12.92 9 18.28-0.52 1.52-1.52 4.52-2.04 6l5.56-0.76c-0.04 5.64-0.04 11.28 0 16.96l3.72-1.04c0.12 6.72 0.44 13.44 0.88 20.2 12.48 0.04 27.68 3.28 34.36-10.72l-6.76-0.52c0.88-36.56 0.64-73.16-0.64-109.68-0.04-4.32-4.36-6.84-6.52-10.12-137 0.52-274.04 0-411.04 0.24-5.16-0.24-9.76 2.4-14.52 3.92z" fill="#000000" p-id="16635"></path><path d="M21.08 247.6c6.56-50.2 33.72-97.52 74.48-127.68-1.2 1.76-3.6 5.36-4.8 7.12-22.76 53.44-18.44 112.48-19.44 169.16 0.2 134.56 0.4 269.16 0.4 403.76 0.4 50 4.24 102.6 30.12 146.76 8.4 15.08 22.28 25.76 32.16 39.72 23.56 24.76 54.4 40.76 85.76 53.6 6.68 0.52 13.72 0.12 19.6 3.84 7 0.8 14.56 0.16 20.68 4.28 12.52 0.72 25.12 0.24 37.68 0.88 25.56 7.76 52.4 0.36 78.48 3.44 26.6-0.32 53.2-0.04 79.8-0.88 19.96 1.48 40-1.72 59.96 0.48 76.92-0.24 154.08 0.44 230.96 2-25.08 0.92-50.04 3.72-75.04 5.68-115.88 13.16-231.96 25.24-348.04 36.88-37.16 2.72-75.48 4-111.44-7.4-59.36-17.84-108.36-66.12-127.52-125.04-14.56-45.4-17.32-93.36-22.88-140.4-12.64-113.28-24.44-226.6-36.28-339.96C22.28 338.56 15.2 293 21.08 247.6z" fill="#000000" p-id="16636"></path></svg>